<?xml version="1.0" encoding="utf-8"?><svg viewBox="0 0 55 54" xmlns="http://www.w3.org/2000/svg" xmlns:xlink="http://www.w3.org/1999/xlink"><style>:root>svg{display:none}:root>svg:target{display:block}</style><svg viewBox="0 0 24 24" id="arr" xmlns="http://www.w3.org/2000/svg"><g><path d="M15 18c-.3 0-.5-.1-.7-.3-.4-.4-.4-1 0-1.4l5-5c.4-.4 1-.4 1.4 0s.4 1 0 1.4l-5 5c-.2.2-.4.3-.7.3z"/><path d="M20 13c-.3 0-.5-.1-.7-.3l-5-5c-.4-.4-.4-1 0-1.4s1-.4 1.4 0l5 5c.4.4.4 1 0 1.4-.2.2-.4.3-.7.3z"/><path d="M20 13H4c-.6 0-1-.4-1-1s.4-1 1-1h16c.6 0 1 .4 1 1s-.4 1-1 1z"/></g></svg><svg viewBox="0 0 22 9" id="arrow" xmlns="http://www.w3.org/2000/svg"><defs><style>.bcls-1{fill:#436372;fill-rule:evenodd}</style></defs><path class="bcls-1" d="M.3 5.47h16.948l-.1 2.86a.279.279 0 00-.084.2.3.3 0 00.084.21l.172.17a.276.276 0 00.408 0L21.92 4.7a.283.283 0 00.084-.2.307.307 0 00-.084-.21L17.728.08a.3.3 0 00-.408 0l-.172.17a.3.3 0 00-.084.21.3.3 0 00.084.2l.113 2.86H.292a.3.3 0 00-.292.3v1.37a.288.288 0 00.3.28z"/></svg><svg viewBox="0 0 22 9" id="arrowright" xmlns="http://www.w3.org/2000/svg"><defs><style>.ccls-1{fill:#fff;fill-rule:evenodd}</style></defs><path class="ccls-1" d="M.3 5.472h16.948l-.1 2.857a.292.292 0 000 .41l.172.172a.28.28 0 00.2.086.285.285 0 00.2-.084l4.193-4.211A.292.292 0 0022 4.5a.283.283 0 00-.084-.2L17.723.087a.289.289 0 00-.407 0l-.172.173a.287.287 0 00-.084.2.278.278 0 00.084.2l.113 2.865H.292A.3.3 0 000 3.82v1.37a.292.292 0 00.3.282z"/></svg><svg fill="#fff" viewBox="0 0 22 9" id="btnarrow" xmlns="http://www.w3.org/2000/svg"><path d="M.296 5.472H.288h16.956l-.1 2.857a.287.287 0 00-.084.205c0 .077.03.15.084.205l.172.172a.286.286 0 00.407.002l4.193-4.211a.289.289 0 000-.41L17.723.08a.29.29 0 00-.407 0l-.172.173a.288.288 0 000 .405l.113 2.865H.292A.298.298 0 000 3.818v1.37c0 .159.137.284.296.284z"/></svg><svg viewBox="0 0 50 50" id="burgerbtn" xmlns="http://www.w3.org/2000/svg"><path fill="#231F20" d="M8.667 15h30a1 1 0 100-2h-30a1 1 0 100 2zM8.667 37h30a1 1 0 100-2h-30a1 1 0 100 2zM8.667 26h30a1 1 0 100-2h-30a1 1 0 100 2z"/></svg><svg viewBox="0 0 26 28" id="calendar" xmlns="http://www.w3.org/2000/svg"><path d="M2 26h4.5v-4.5H2V26zm5.5 0h5v-4.5h-5V26zM2 20.5h4.5v-5H2v5zm5.5 0h5v-5h-5v5zm-5.5-6h4.5V10H2v4.5zM13.5 26h5v-4.5h-5V26zm-6-11.5h5V10h-5v4.5zm12 11.5H24v-4.5h-4.5V26zm-6-5.5h5v-5h-5v5zM8 7V2.5c0-.266-.234-.5-.5-.5h-1c-.266 0-.5.234-.5.5V7c0 .266.234.5.5.5h1c.266 0 .5-.234.5-.5zm11.5 13.5H24v-5h-4.5v5zm-6-6h5V10h-5v4.5zm6 0H24V10h-4.5v4.5zM20 7V2.5c0-.266-.234-.5-.5-.5h-1c-.266 0-.5.234-.5.5V7c0 .266.234.5.5.5h1c.266 0 .5-.234.5-.5zm6-1v20c0 1.094-.906 2-2 2H2c-1.094 0-2-.906-2-2V6c0-1.094.906-2 2-2h2V2.5C4 1.125 5.125 0 6.5 0h1C8.875 0 10 1.125 10 2.5V4h6V2.5C16 1.125 17.125 0 18.5 0h1C20.875 0 22 1.125 22 2.5V4h2c1.094 0 2 .906 2 2z"/></svg><svg viewBox="0 0 54 53" id="card" xmlns="http://www.w3.org/2000/svg"><path fill="#a3bbc8" d="M47.261 32.151v8.265a3.84 3.84 0 01-3.834 3.838H4.092a3.84 3.84 0 01-3.834-3.837v-23.62a3.841 3.841 0 013.834-3.839H29.22a.836.836 0 010 1.673H4.092a2.167 2.167 0 00-2.163 2.166v2.884h9.869a.836.836 0 010 1.673H1.929v5.47H29.22a.837.837 0 010 1.673H1.93v11.92c0 1.193.97 2.165 2.162 2.165h39.335a2.167 2.167 0 002.162-2.165V32.15a.836.836 0 111.672 0zM30.056 20.518a.836.836 0 01-.836.837H15.004a.836.836 0 010-1.674H29.22c.462 0 .836.375.836.837zm-9.238 11.555a.836.836 0 01-.836.837H5.71a.836.836 0 010-1.674h14.27c.462 0 .837.375.837.837zm-6.087 3.991a.836.836 0 01-.836.837H5.711a.836.836 0 010-1.673h8.185c.461 0 .835.375.835.836zm32.967-15.28v-4.773c0-.755-.614-1.37-1.37-1.37H34.434c-.755 0-1.37.615-1.37 1.37V26.76c0 .756.615 1.37 1.37 1.37H46.33c.755 0 1.37-.614 1.37-1.37v-3.186a.836.836 0 111.671 0v3.186a3.047 3.047 0 01-3.041 3.044H34.434a3.046 3.046 0 01-3.04-3.044V16.012a3.049 3.049 0 012.392-2.975V7.021c0-3.64 2.959-6.603 6.595-6.603 3.637 0 6.595 2.962 6.595 6.603v6.016a3.048 3.048 0 012.394 2.974v4.773a.836.836 0 11-1.672 0zm-2.394-7.817V7.021a4.931 4.931 0 00-4.923-4.929 4.931 4.931 0 00-4.923 4.929v5.946zm-1.83 7.417a3.099 3.099 0 01-2.257 2.98v2.04a.835.835 0 11-1.671 0v-2.04a3.099 3.099 0 01-2.257-2.98 3.097 3.097 0 013.093-3.095 3.097 3.097 0 013.092 3.095zm-1.672 0c0-.783-.637-1.422-1.42-1.422a1.423 1.423 0 000 2.844c.783 0 1.42-.637 1.42-1.422z"/><path fill="#a3bbc8" d="M44 33.062c5.42 0 9.812 4.386 9.812 9.797 0 5.41-4.393 9.797-9.812 9.797-5.42 0-9.813-4.386-9.813-9.797 0-5.41 4.394-9.797 9.813-9.797z" opacity=".34"/></svg><svg viewBox="0 0 55 37" id="delivery" xmlns="http://www.w3.org/2000/svg"><path fill="#a3bbc8" d="M10.602 6.12a.786.786 0 01-.786.786H3.69a.786.786 0 010-1.572h6.126c.434 0 .786.352.786.785zm.523 11.006a.785.785 0 01-.785.786H4.738a.785.785 0 010-1.572h5.602c.434 0 .785.352.785.786zm-2.094-4.717a.786.786 0 01-.785.786h-6.65a.786.786 0 010-1.572h6.65c.433 0 .785.352.785.786zm0 11.006a.786.786 0 01-.785.787H7.6a.786.786 0 010-1.573h.645c.433 0 .785.352.785.786zm-3.262 0a.786.786 0 01-.786.787H1.596a.786.786 0 010-1.573h3.387c.434 0 .786.352.786.786zm44.153-12.56V24.94a.786.786 0 01-.785.787h-2.782a4.983 4.983 0 01-4.912 4.192 4.983 4.983 0 01-4.912-4.192H25.28a4.983 4.983 0 01-4.911 4.192 4.983 4.983 0 01-4.912-4.192h-2.42a.786.786 0 01-.784-.787V1.354c0-.434.351-.786.785-.786h6.046a.786.786 0 010 1.572h-5.26v22.014h1.633a4.983 4.983 0 014.912-4.193 4.983 4.983 0 014.911 4.193h8.336V23.03a.785.785 0 111.57 0v1.125h1.346a4.983 4.983 0 014.912-4.193 4.983 4.983 0 014.912 4.193h1.997v-13.3c0-3.591-2.92-6.513-6.509-6.513h-6.657V19.36a.786.786 0 11-1.571 0V2.14h-11.39a.786.786 0 010-1.572H34.4c.434 0 .786.352.786.786v1.415h6.657c4.455 0 8.08 3.628 8.08 8.086zM23.772 24.94a3.409 3.409 0 00-3.404-3.406 3.409 3.409 0 00-3.404 3.406 3.409 3.409 0 003.404 3.407 3.409 3.409 0 003.403-3.407zm21.075 0a3.409 3.409 0 00-3.404-3.406 3.408 3.408 0 00-3.403 3.406v.001a3.41 3.41 0 003.403 3.406 3.409 3.409 0 003.404-3.407zm1.934-14.085v3.235a.786.786 0 01-.786.787h-8.453a.786.786 0 01-.785-.787V6.7c0-.434.351-.786.785-.786h4.301a4.945 4.945 0 014.938 4.941zm-1.571 0a3.372 3.372 0 00-3.367-3.368h-3.515v5.817h6.882zM22.392 24.94a2.028 2.028 0 01-2.024 2.027 2.028 2.028 0 01-2.025-2.027c0-1.117.908-2.027 2.025-2.027 1.116 0 2.024.91 2.024 2.027zm-1.57 0a.455.455 0 10-.91 0 .455.455 0 00.91 0zm22.646 0a2.028 2.028 0 01-2.025 2.027 2.028 2.028 0 01-2.025-2.027 2.03 2.03 0 012.025-2.027c1.117 0 2.025.91 2.025 2.027zm-1.57 0a.455.455 0 10-.91 0 .455.455 0 00.91 0zm4.883-7.128v1.992a.786.786 0 11-1.571 0v-1.992a.786.786 0 111.57 0z"/><path fill="#a3bbc8" d="M44.75 17.406c5.42 0 9.812 4.386 9.812 9.797 0 5.41-4.393 9.797-9.812 9.797-5.42 0-9.813-4.386-9.813-9.797 0-5.41 4.394-9.797 9.813-9.797z" opacity=".34"/></svg><svg viewBox="0 0 19 17" id="icon-cart"><path d="M5.526 16.978c-.536 0-1.063-.21-1.461-.607a2.066 2.066 0 01-.453-2.26 2.068 2.068 0 011.915-1.28h.006c.55 0 1.07.214 1.46.602.393.394.609.913.609 1.467.002.84-.5 1.593-1.277 1.917-.258.108-.53.16-.798.16zm.007-2.963h-.004a.887.887 0 00-.628 1.518.89.89 0 10.632-1.518zm8.385 2.963c-.537 0-1.064-.21-1.461-.607a2.065 2.065 0 01-.452-2.26 2.065 2.065 0 011.913-1.28c.546-.04 1.08.218 1.468.603.392.393.607.912.607 1.466a2.064 2.064 0 01-1.274 1.917c-.26.108-.532.16-.8.16zm.006-2.963h-.001c-.331.032-.685.215-.823.548a.89.89 0 10.824-.548zm-11.279.163a.592.592 0 01-.536-.843c.579-1.24 1.627-1.973 3.054-2.15L4.108 5.792a.593.593 0 011.163-.227l1.091 5.578h9.423l1.807-6.771H4.29A4.354 4.354 0 01.007.68.591.591 0 111.178.505a3.165 3.165 0 003.115 2.682h14.07a.591.591 0 01.573.745l-2.123 7.956a.594.594 0 01-.573.44H5.885a.044.044 0 00-.023 0c-1.33 0-2.205.493-2.68 1.51a.593.593 0 01-.537.34z"/></svg><svg viewBox="0 0 18 17" id="icon-heart"><path d="M8.913 16.244a.707.707 0 01-.28-.056c-.353-.15-8.65-3.75-8.65-10.76C.074 2.779 2.19.722 4.801.722c1.743 0 3.266.918 4.112 2.31a4.796 4.796 0 014.112-2.31c2.61 0 4.725 2.058 4.817 4.684 0 7.034-8.297 10.634-8.65 10.783a.71.71 0 01-.28.056zM4.8 2.106c-1.847 0-3.343 1.47-3.408 3.346 0 5.408 6.125 8.663 7.52 9.335 1.395-.672 7.52-3.93 7.52-9.358-.065-1.853-1.563-3.323-3.408-3.323s-3.342 1.47-3.408 3.346a.7.7 0 01-.704.67.7.7 0 01-.705-.67C8.143 3.576 6.646 2.106 4.8 2.106z"/></svg><svg viewBox="0 0 20 21" id="icon-nav"><path d="M2.146 4.88A2.144 2.144 0 010 2.736C0 1.548.96.589 2.146.589c1.187 0 2.146.959 2.146 2.146 0 1.186-.96 2.146-2.146 2.146zm0 7.87A2.145 2.145 0 010 10.603c0-1.186.96-2.145 2.146-2.145a2.145 2.145 0 110 4.292zm0 7.868A2.144 2.144 0 010 18.472c0-1.187.96-2.146 2.146-2.146 1.187 0 2.146.96 2.146 2.146 0 1.187-.96 2.146-2.146 2.146zM10.014 4.88a2.144 2.144 0 01-2.146-2.146c0-1.187.96-2.146 2.146-2.146 1.187 0 2.146.959 2.146 2.146a2.144 2.144 0 01-2.146 2.146zm0 7.869a2.145 2.145 0 01-2.146-2.147c0-1.186.96-2.145 2.146-2.145 1.187 0 2.146.959 2.146 2.145a2.145 2.145 0 01-2.146 2.147zm0 7.868a2.144 2.144 0 01-2.146-2.146c0-1.187.96-2.146 2.146-2.146 1.187 0 2.146.96 2.146 2.146a2.144 2.144 0 01-2.146 2.146zM17.883 4.88a2.144 2.144 0 01-2.146-2.146c0-1.187.96-2.146 2.146-2.146 1.187 0 2.146.959 2.146 2.146 0 1.186-.96 2.146-2.146 2.146zm0 7.869a2.145 2.145 0 01-2.146-2.147c0-1.186.96-2.145 2.146-2.145a2.145 2.145 0 110 4.292zm0 7.868a2.144 2.144 0 01-2.146-2.146c0-1.187.96-2.146 2.146-2.146 1.187 0 2.146.96 2.146 2.146 0 1.187-.96 2.146-2.146 2.146z"/></svg><svg viewBox="0 0 16 16" id="icon-search"><path d="M3.702 6.076c.356-.065.68.13.746.484a2.65 2.65 0 00.78 1.49c.42.388.941.677 1.493.776.325.066.552.39.487.743a.643.643 0 01-.714.516 4.2 4.2 0 01-2.143-1.13 4.164 4.164 0 01-1.136-2.137c-.065-.354.128-.676.487-.742zM6.98-.004c3.465 0 6.279 2.8 6.279 6.257 0 .93-.203 1.812-.568 2.604l2.336 2.036c1.703 1.747.746 3.266.294 3.717-.422.454-1.994 1.415-3.73-.292l-2.06-2.35c-.78.345-1.64.539-2.548.539-3.468 0-6.278-2.802-6.278-6.257 0-3.456 2.807-6.254 6.275-6.254zm5.546 13.517c.293.324 1.126.867 1.88.226.21-.176.634-1.068-.227-1.873l-2.162-1.88a6.269 6.269 0 01-1.363 1.34zM6.98 11.201c2.742 0 4.966-2.216 4.966-4.948S9.722 1.305 6.98 1.305 2.015 3.521 2.015 6.253s2.22 4.948 4.965 4.948z"/></svg><svg viewBox="0 0 50 39" id="logo" xmlns="http://www.w3.org/2000/svg"><path fill="#a3bbc8" d="M.09 27.826c.088-.18 6.411-12.931 6.582-13.256.171-.325.375-.387.507-.452L42.373.068s.57-.188.965.051a.96.96 0 01.449.645l6.25 37.079s.095.475-.309.804c-.405.33-.903.213-.908.212L.779 29.061c-.014-.003-.382-.075-.622-.387-.24-.311-.157-.666-.067-.848zm35.942-6.02l-10.339 2.159 20.05 11.145zM2.736 26.924l17.833-3.714-12.522-6.983zM23.31 22.64l12.372-2.583L41.24 2.468 9.71 15.055zM42.487 5.133l-4.903 15.52 9.78 13.397zM22.95 24.537l-17.523 3.65 38.05 7.76z"/></svg><svg viewBox="0 0 22 25" id="play" xmlns="http://www.w3.org/2000/svg"><defs><style>.ncls-1{fill:#fff;fill-rule:evenodd}</style></defs><path id="nForm_24" data-name="Form 24" class="ncls-1" d="M970.684 3900.74l-16.044 9.8a3.228 3.228 0 01-3.062.14 2.685 2.685 0 01-1.579-2.39v-19.59a2.685 2.685 0 011.579-2.39 3.258 3.258 0 013.062.15l16.044 9.79a2.666 2.666 0 011.316 2.25 2.638 2.638 0 01-1.316 2.24z" transform="translate(-950 -3886)"/></svg><svg viewBox="0 0 24 24" id="rightarrow" xmlns="http://www.w3.org/2000/svg"><defs><path id="oa" d="M2.293.293a1 1 0 111.414 1.414l-2 2A1 1 0 01.293 2.293l2-2z"/><path id="oc" d="M3.414 4h9.587a1 1 0 010 2H3.414l2.293 2.293a1 1 0 01-1.414 1.414l-4-4a1 1 0 010-1.414l4-4a1 1 0 111.414 1.414L3.414 4z"/></defs><g fill="none" fill-rule="evenodd" transform="matrix(-1 0 0 1 19 7)"><g transform="translate(3 1)"><mask id="ob" fill="#fff"><use xlink:href="#oa"/></mask><use fill="#D8D8D8" fill-rule="nonzero" xlink:href="#oa"/><g fill="#FFA0A0" mask="url(#ob)"><path d="M-8-8h24v24H-8z"/></g></g><mask id="od" fill="#fff"><use xlink:href="#oc"/></mask><use fill="#000" fill-rule="nonzero" xlink:href="#oc"/><g fill="#7600FF" mask="url(#od)"><path d="M-5-7h24v24H-5z"/></g></g></svg><svg viewBox="0 0 52 54" id="sup" xmlns="http://www.w3.org/2000/svg"><path fill="#a3bbc8" d="M41.984 33.594c5.41 0 9.797 4.393 9.797 9.812 0 5.42-4.386 9.813-9.797 9.813-5.41 0-9.797-4.394-9.797-9.813 0-5.42 4.387-9.812 9.797-9.812z" opacity=".34"/><path fill="#a3bbc8" d="M50.02 24.65c0 13.54-11.017 24.556-24.557 24.556A24.349 24.349 0 0110.735 44.3a.937.937 0 111.125-1.5 22.487 22.487 0 0013.603 4.53c12.506 0 22.681-10.174 22.681-22.68 0-4.254-1.184-8.399-3.424-11.988a.938.938 0 011.592-.993 24.495 24.495 0 013.707 12.98zm-25.801 9.896c0 .517-.42.938-.938.938h-9.813a.937.937 0 01-.663-1.601l6.344-6.343c2.06-2.06 3.195-4.8 3.195-7.714 0-2.189-1.78-3.97-3.97-3.97a3.973 3.973 0 00-3.968 3.97.937.937 0 11-1.875 0 5.851 5.851 0 015.844-5.844 5.851 5.851 0 015.844 5.844 12.7 12.7 0 01-3.744 9.039l-4.743 4.743h7.55c.517 0 .937.42.937.938zm15.04-6.438c0 .517-.42.938-.938.938h-2.6v5.5a.938.938 0 01-1.876 0v-5.5h-6.938a.937.937 0 01-.805-1.419l7.875-13.188a.938.938 0 011.742.472l.001.008v7.61a.937.937 0 11-1.875 0v-4.21l-5.286 8.851h5.286v-1.516a.938.938 0 011.875 0v1.516h2.601c.518 0 .938.42.938.938zm4.488-19.51a.938.938 0 01-.915.96l-4.06.096h-.023a.937.937 0 01-.022-1.874l1.843-.043a22.76 22.76 0 00-15.107-5.768c-12.506 0-22.68 10.175-22.68 22.681 0 6.14 2.414 11.891 6.798 16.193a.937.937 0 11-1.312 1.338C3.522 37.525.907 31.298.907 24.65.907 11.11 11.923.094 25.463.094c3.485 0 6.853.715 10.01 2.126a24.405 24.405 0 016.345 4.112l-.042-1.749a.938.938 0 011.875-.045z"/></svg><svg viewBox="0 0 24 28" id="user" xmlns="http://www.w3.org/2000/svg"><path d="M18.766 12.25c2.203.641 5.234 2.812 5.234 9.922C24 25.391 21.609 28 18.672 28H5.328C2.39 28 0 25.391 0 22.172c0-7.109 3.031-9.281 5.234-9.922A7.914 7.914 0 014 8c0-4.406 3.594-8 8-8s8 3.594 8 8a7.911 7.911 0 01-1.234 4.25zM12 2C8.687 2 6 4.688 6 8s2.688 6 6 6 6-2.688 6-6-2.688-6-6-6zm6.672 24C20.5 26 22 24.297 22 22.172c0-4.922-1.656-8-4.75-8.156C15.844 15.25 14.016 16 12 16s-3.844-.75-5.25-1.984C3.656 14.172 2 17.25 2 22.172 2 24.297 3.5 26 5.328 26h13.344z"/></svg><svg viewBox="0 0 6.1 10.97" id="vieallarrow" xmlns="http://www.w3.org/2000/svg"><defs><style>.rcls-1{fill:#262626;fill-rule:evenodd}</style></defs><path class="rcls-1" d="M.55 10.97a.53.53 0 01-.41-.19.6.6 0 01-.15-.4.631.631 0 01.17-.43l4.55-4.47L.16 1A.607.607 0 01-.01.58.629.629 0 01.14.17a.559.559 0 01.8-.02l4.98 4.9.01.01a.657.657 0 01.12.17.7.7 0 01.05.25.742.742 0 01-.05.25.61.61 0 01-.12.16c0 .01-.01.01-.01.02l-4.98 4.9a.589.589 0 01-.39.16z"/></svg></svg>