<?xml version="1.0" encoding="utf-8"?><svg viewBox="0 0 512 512" xmlns="http://www.w3.org/2000/svg" xmlns:xlink="http://www.w3.org/1999/xlink"><style>:root>svg{display:none}:root>svg:target{display:block}</style><svg viewBox="0 0 15 11" id="about-arrow-right" xmlns="http://www.w3.org/2000/svg"><defs><style>.aacls-1{fill:#fff;fill-rule:evenodd}</style></defs><path class="aacls-1" d="M8.931 11.01a.673.673 0 00.425-.16l5.434-4.92c.007 0 .013-.01.019-.01l.031-.03v-.01a.567.567 0 00.138-.47.6.6 0 00-.155-.31l-.033-.03L9.355.16a.65.65 0 00-.874.02.578.578 0 00.024.84l4.311 3.89H.631a.608.608 0 00-.617.59.6.6 0 00.617.59h12.186l-4.311 3.9a.566.566 0 00-.024.83.608.608 0 00.449.19z"/></svg><svg viewBox="0 0 24 24" id="arr" xmlns="http://www.w3.org/2000/svg"><g><path d="M15 18c-.3 0-.5-.1-.7-.3-.4-.4-.4-1 0-1.4l5-5c.4-.4 1-.4 1.4 0s.4 1 0 1.4l-5 5c-.2.2-.4.3-.7.3z"/><path d="M20 13c-.3 0-.5-.1-.7-.3l-5-5c-.4-.4-.4-1 0-1.4s1-.4 1.4 0l5 5c.4.4.4 1 0 1.4-.2.2-.4.3-.7.3z"/><path d="M20 13H4c-.6 0-1-.4-1-1s.4-1 1-1h16c.6 0 1 .4 1 1s-.4 1-1 1z"/></g></svg><svg viewBox="0 0 22 9" id="arrow" xmlns="http://www.w3.org/2000/svg"><defs><style>.accls-1{fill:#436372;fill-rule:evenodd}</style></defs><path class="accls-1" d="M.3 5.47h16.948l-.1 2.86a.279.279 0 00-.084.2.3.3 0 00.084.21l.172.17a.276.276 0 00.408 0L21.92 4.7a.283.283 0 00.084-.2.307.307 0 00-.084-.21L17.728.08a.3.3 0 00-.408 0l-.172.17a.3.3 0 00-.084.21.3.3 0 00.084.2l.113 2.86H.292a.3.3 0 00-.292.3v1.37a.288.288 0 00.3.28z"/></svg><svg viewBox="0 0 22 9" id="arrowright" xmlns="http://www.w3.org/2000/svg"><defs><style>.adcls-1{fill:#fff;fill-rule:evenodd}</style></defs><path class="adcls-1" d="M.3 5.472h16.948l-.1 2.857a.292.292 0 000 .41l.172.172a.28.28 0 00.2.086.285.285 0 00.2-.084l4.193-4.211A.292.292 0 0022 4.5a.283.283 0 00-.084-.2L17.723.087a.289.289 0 00-.407 0l-.172.173a.287.287 0 00-.084.2.278.278 0 00.084.2l.113 2.865H.292A.3.3 0 000 3.82v1.37a.292.292 0 00.3.282z"/></svg><svg id="brands" data-name="Группа 1" viewBox="0 0 60.32 63.94" xmlns="http://www.w3.org/2000/svg"><defs><style>.aecls-1{fill:#a3bbc8}.aecls-2{fill:#243f4d;fill-rule:evenodd}</style></defs><circle class="aecls-1" cx="43.44" cy="46.44" r="16.88"/><path class="aecls-2" d="M1413.15 1277.01a17.9 17.9 0 00-20.89 3.38 18.376 18.376 0 00-1.5 24.05 1.029 1.029 0 00.79.39.981.981 0 00.62-.22 1.011 1.011 0 00.17-1.41 16.324 16.324 0 011.33-21.38 15.907 15.907 0 0118.58-3.01 1 1 0 001.34-.44 1.018 1.018 0 00-.44-1.36zm7.97 8.05a.99.99 0 00-1.34-.44 1.007 1.007 0 00-.44 1.35 16.279 16.279 0 01-2.98 18.75 15.948 15.948 0 01-21.18 1.34.992.992 0 00-1.4.18 1.011 1.011 0 00.17 1.41 17.914 17.914 0 0023.82-1.5 18.316 18.316 0 003.35-21.09zm-2.58-3.84c-.24-.28-.5-.56-.77-.83s-.54-.53-.82-.78a1 1 0 00-1.32 1.51c.25.23.49.46.73.7s.47.49.69.74a.991.991 0 00.74.34 1.05 1.05 0 00.67-.25 1.021 1.021 0 00.08-1.43zm10.04 13.86a3.439 3.439 0 000-3.58l-1.31-2.17a1.412 1.412 0 01-.19-.96l.39-2.51a3.427 3.427 0 00-1.36-3.31l-2.03-1.5a1.384 1.384 0 01-.54-.81l-.6-2.47a3.391 3.391 0 00-2.5-2.53l-2.45-.6a1.448 1.448 0 01-.81-.54l-1.48-2.06a3.365 3.365 0 00-3.28-1.37l-2.48.39a1.374 1.374 0 01-.95-.19l-2.16-1.32a3.326 3.326 0 00-3.54 0l-2.15 1.32a1.384 1.384 0 01-.95.19l-2.49-.39a3.373 3.373 0 00-3.28 1.37l-1.48 2.05a1.393 1.393 0 01-.8.55l-2.45.6a3.388 3.388 0 00-2.51 2.53l-.59 2.47a1.415 1.415 0 01-.54.81l-2.04 1.5a3.427 3.427 0 00-1.36 3.31l.39 2.51a1.406 1.406 0 01-.18.96l-1.32 2.17a3.484 3.484 0 000 3.58l1.32 2.17a1.406 1.406 0 01.18.96l-.39 2.51a3.427 3.427 0 001.36 3.31l2.04 1.5a1.384 1.384 0 01.54.81l.59 2.47a3.391 3.391 0 002.5 2.53l1.03.25-6.93 15.59a1.043 1.043 0 00.11 1.01.981.981 0 00.92.4l5.57-.67 3.21 4.65a1.01 1.01 0 00.82.43h.1a.994.994 0 00.81-.6l7.08-15.92.89.55a3.326 3.326 0 003.54 0l.93-.57 7.08 15.94a1.009 1.009 0 00.82.6h.09a1 1 0 00.82-.43l3.21-4.65 5.57.68a1.015 1.015 0 001.03-1.42l-6.93-15.6.99-.24a3.391 3.391 0 002.5-2.53l.6-2.47a1.384 1.384 0 01.54-.81l2.03-1.5a3.427 3.427 0 001.36-3.31l-.39-2.51a1.412 1.412 0 01.19-.96zm-34.36 34.88l-2.54-3.69a.99.99 0 00-.94-.42l-4.41.53 6.31-14.2a1.421 1.421 0 01.3.3l1.48 2.06a3.958 3.958 0 00.47.53l-3.32 7.48a1.005 1.005 0 00.91 1.42 1 1 0 00.91-.6l3.31-7.45a3.725 3.725 0 001-.01l2.49-.39a1.086 1.086 0 01.44 0zm29.62-3.58l-4.42-.53a.983.983 0 00-.93.42l-2.55 3.69-6.41-14.45a1.136 1.136 0 01.41.01l2.48.39a3.3 3.3 0 001.04 0l3.31 7.46a1.012 1.012 0 00.91.6.978.978 0 00.41-.09 1.011 1.011 0 00.5-1.33l-3.33-7.51a3.5 3.5 0 00.44-.5l1.48-2.06a1.518 1.518 0 01.34-.33zm3.04-32.35l-1.32 2.17a3.435 3.435 0 00-.45 2.32l.39 2.51a1.419 1.419 0 01-.56 1.37l-2.04 1.5a3.4 3.4 0 00-1.3 1.96l-.6 2.48a1.383 1.383 0 01-1.03 1.04l-2.45.6a3.357 3.357 0 00-1.95 1.32l-1.48 2.05a1.39 1.39 0 01-1.36.57l-2.48-.4a3.42 3.42 0 00-2.3.46l-2.16 1.33a1.374 1.374 0 01-1.46 0l-2.15-1.33a3.4 3.4 0 00-1.78-.5 4.55 4.55 0 00-.52.04l-2.49.4a1.382 1.382 0 01-1.35-.57l-1.49-2.05a3.357 3.357 0 00-1.95-1.32l-2.45-.6a1.383 1.383 0 01-1.03-1.04l-.59-2.48a3.412 3.412 0 00-1.31-1.96l-2.03-1.5a1.426 1.426 0 01-.57-1.37l.4-2.51a3.5 3.5 0 00-.46-2.32l-1.31-2.17a1.409 1.409 0 010-1.48l1.31-2.17a3.5 3.5 0 00.46-2.32l-.39-2.52a1.391 1.391 0 01.56-1.36l2.03-1.5a3.467 3.467 0 001.31-1.97l.59-2.47a1.383 1.383 0 011.03-1.04l2.45-.6a3.412 3.412 0 001.96-1.32l1.48-2.05a1.382 1.382 0 011.35-.57l2.49.39a3.331 3.331 0 002.3-.46l2.15-1.32a1.374 1.374 0 011.46 0l2.16 1.32a3.31 3.31 0 002.3.46l2.48-.39a1.39 1.39 0 011.36.57l1.48 2.05a3.389 3.389 0 001.95 1.32l2.45.6a1.383 1.383 0 011.03 1.04l.6 2.47a3.42 3.42 0 001.3 1.97l2.04 1.5a1.411 1.411 0 01.56 1.36l-.39 2.52a3.435 3.435 0 00.45 2.32l1.32 2.17a1.453 1.453 0 010 1.48zm-10.13-3.88a1.788 1.788 0 00-1.51-1.24l-6.01-.72-2.53-5.55a1.8 1.8 0 00-3.28 0l-2.53 5.55-6.01.72a1.775 1.775 0 00-1.5 1.24 1.818 1.818 0 00.49 1.9l4.44 4.15-1.18 5.99a1.819 1.819 0 001.77 2.18 1.767 1.767 0 00.88-.24l5.28-2.98 5.28 2.98a1.757 1.757 0 001.94-.11 1.807 1.807 0 00.71-1.83l-1.18-5.99 4.44-4.15a1.8 1.8 0 00.5-1.9zm-6.7 4.95a1.006 1.006 0 00-.3.94l1.2 6.13-5.4-3.05a.947.947 0 00-.49-.13.973.973 0 00-.49.13l-5.4 3.05 1.21-6.13a1.031 1.031 0 00-.3-.94l-4.55-4.24 6.15-.74a1.01 1.01 0 00.79-.58l2.59-5.67 2.59 5.67a1.01 1.01 0 00.79.58l6.15.74z" transform="translate(-1381.06 -1269.06)"/></svg><svg fill="#fff" viewBox="0 0 22 9" id="btnarrow" xmlns="http://www.w3.org/2000/svg"><path d="M.296 5.472H.288h16.956l-.1 2.857a.287.287 0 00-.084.205c0 .077.03.15.084.205l.172.172a.286.286 0 00.407.002l4.193-4.211a.289.289 0 000-.41L17.723.08a.29.29 0 00-.407 0l-.172.173a.288.288 0 000 .405l.113 2.865H.292A.298.298 0 000 3.818v1.37c0 .159.137.284.296.284z"/></svg><svg viewBox="0 0 50 50" id="burgerbtn" xmlns="http://www.w3.org/2000/svg"><path fill="#231F20" d="M8.667 15h30a1 1 0 100-2h-30a1 1 0 100 2zM8.667 37h30a1 1 0 100-2h-30a1 1 0 100 2zM8.667 26h30a1 1 0 100-2h-30a1 1 0 100 2z"/></svg><svg viewBox="0 0 26 28" id="calendar" xmlns="http://www.w3.org/2000/svg"><path d="M2 26h4.5v-4.5H2V26zm5.5 0h5v-4.5h-5V26zM2 20.5h4.5v-5H2v5zm5.5 0h5v-5h-5v5zm-5.5-6h4.5V10H2v4.5zM13.5 26h5v-4.5h-5V26zm-6-11.5h5V10h-5v4.5zm12 11.5H24v-4.5h-4.5V26zm-6-5.5h5v-5h-5v5zM8 7V2.5c0-.266-.234-.5-.5-.5h-1c-.266 0-.5.234-.5.5V7c0 .266.234.5.5.5h1c.266 0 .5-.234.5-.5zm11.5 13.5H24v-5h-4.5v5zm-6-6h5V10h-5v4.5zm6 0H24V10h-4.5v4.5zM20 7V2.5c0-.266-.234-.5-.5-.5h-1c-.266 0-.5.234-.5.5V7c0 .266.234.5.5.5h1c.266 0 .5-.234.5-.5zm6-1v20c0 1.094-.906 2-2 2H2c-1.094 0-2-.906-2-2V6c0-1.094.906-2 2-2h2V2.5C4 1.125 5.125 0 6.5 0h1C8.875 0 10 1.125 10 2.5V4h6V2.5C16 1.125 17.125 0 18.5 0h1C20.875 0 22 1.125 22 2.5V4h2c1.094 0 2 .906 2 2z"/></svg><svg viewBox="0 0 54 53" id="card" xmlns="http://www.w3.org/2000/svg"><path fill="#a3bbc8" d="M47.261 32.151v8.265a3.84 3.84 0 01-3.834 3.838H4.092a3.84 3.84 0 01-3.834-3.837v-23.62a3.841 3.841 0 013.834-3.839H29.22a.836.836 0 010 1.673H4.092a2.167 2.167 0 00-2.163 2.166v2.884h9.869a.836.836 0 010 1.673H1.929v5.47H29.22a.837.837 0 010 1.673H1.93v11.92c0 1.193.97 2.165 2.162 2.165h39.335a2.167 2.167 0 002.162-2.165V32.15a.836.836 0 111.672 0zM30.056 20.518a.836.836 0 01-.836.837H15.004a.836.836 0 010-1.674H29.22c.462 0 .836.375.836.837zm-9.238 11.555a.836.836 0 01-.836.837H5.71a.836.836 0 010-1.674h14.27c.462 0 .837.375.837.837zm-6.087 3.991a.836.836 0 01-.836.837H5.711a.836.836 0 010-1.673h8.185c.461 0 .835.375.835.836zm32.967-15.28v-4.773c0-.755-.614-1.37-1.37-1.37H34.434c-.755 0-1.37.615-1.37 1.37V26.76c0 .756.615 1.37 1.37 1.37H46.33c.755 0 1.37-.614 1.37-1.37v-3.186a.836.836 0 111.671 0v3.186a3.047 3.047 0 01-3.041 3.044H34.434a3.046 3.046 0 01-3.04-3.044V16.012a3.049 3.049 0 012.392-2.975V7.021c0-3.64 2.959-6.603 6.595-6.603 3.637 0 6.595 2.962 6.595 6.603v6.016a3.048 3.048 0 012.394 2.974v4.773a.836.836 0 11-1.672 0zm-2.394-7.817V7.021a4.931 4.931 0 00-4.923-4.929 4.931 4.931 0 00-4.923 4.929v5.946zm-1.83 7.417a3.099 3.099 0 01-2.257 2.98v2.04a.835.835 0 11-1.671 0v-2.04a3.099 3.099 0 01-2.257-2.98 3.097 3.097 0 013.093-3.095 3.097 3.097 0 013.092 3.095zm-1.672 0c0-.783-.637-1.422-1.42-1.422a1.423 1.423 0 000 2.844c.783 0 1.42-.637 1.42-1.422z"/><path fill="#a3bbc8" d="M44 33.062c5.42 0 9.812 4.386 9.812 9.797 0 5.41-4.393 9.797-9.812 9.797-5.42 0-9.813-4.386-9.813-9.797 0-5.41 4.394-9.797 9.813-9.797z" opacity=".34"/></svg><svg aria-hidden="true" data-prefix="fas" data-icon="times" class="ajsvg-inline--fa ajfa-times ajfa-w-11" viewBox="0 0 352 512" id="closeicon" xmlns="http://www.w3.org/2000/svg"><path d="M242.72 256l100.07-100.07c12.28-12.28 12.28-32.19 0-44.48l-22.24-22.24c-12.28-12.28-32.19-12.28-44.48 0L176 189.28 75.93 89.21c-12.28-12.28-32.19-12.28-44.48 0L9.21 111.45c-12.28 12.28-12.28 32.19 0 44.48L109.28 256 9.21 356.07c-12.28 12.28-12.28 32.19 0 44.48l22.24 22.24c12.28 12.28 32.2 12.28 44.48 0L176 322.72l100.07 100.07c12.28 12.28 32.2 12.28 44.48 0l22.24-22.24c12.28-12.28 12.28-32.19 0-44.48L242.72 256z"/></svg><svg id="delivered" data-name="Группа 3" viewBox="0 0 72.375 51.38" xmlns="http://www.w3.org/2000/svg"><defs><style>.akcls-1{fill:#a3bbc8}.akcls-2{fill:#243f4d;fill-rule:evenodd}</style></defs><circle class="akcls-1" cx="55.5" cy="34.5" r="16.875"/><path class="akcls-2" d="M829.52 1297.96l-1.658-6.55a1 1 0 00.793-.97v-1.06a4.192 4.192 0 00-4.208-4.16H816.9v-2.17a2.063 2.063 0 00-2.071-2.05h-38.483a2.063 2.063 0 00-2.071 2.05V1301a1 1 0 002 0v-17.95a.068.068 0 01.066-.07h38.481a.068.068 0 01.066.07V1301a1 1 0 002 0v-1.12h11.826a3.27 3.27 0 013.114 2.24h-3.116a1 1 0 00-1 .99v2.11a3.131 3.131 0 003.14 3.11H832v4.35h-2.621a6.372 6.372 0 00-12 0h-.479v-7.46a1 1 0 00-2 0v7.46h-20.8a6.372 6.372 0 00-12 0h-5.761a.066.066 0 01-.066-.06v-2.18h4.342a.99.99 0 100-1.98H771a.99.99 0 100 1.98h3.274v2.18a2.061 2.061 0 002.071 2.04h5.413v.07a6.347 6.347 0 0012.693 0v-.07h22.584v.07a6.347 6.347 0 0012.693 0v-.07H833a.994.994 0 001-.99v-10.56a5.235 5.235 0 00-4.48-5.15zm-12.62-10.76h7.549a2.2 2.2 0 012.2 2.18v.07H816.9v-2.25zm0 10.7v-6.47h8.9l1.637 6.47H816.9zm-28.8 21.12a4.29 4.29 0 114.343-4.29 4.325 4.325 0 01-4.343 4.29zm35.274 0a4.29 4.29 0 114.342-4.29 4.325 4.325 0 01-4.338 4.29zm8.626-12.67h-1.14a1.137 1.137 0 01-1.136-1.13v-1.12H832v2.25zm-43.892 6.33a2.05 2.05 0 102.071 2.05 2.063 2.063 0 00-2.079-2.05zm35.274 0a2.05 2.05 0 102.071 2.05 2.063 2.063 0 00-2.075-2.05zm-11.758-4.22h-14.969a.99.99 0 100 1.98h14.965a.99.99 0 100-1.98zm-25.653-4.23H773.14a.99.99 0 100 1.98h12.827a.99.99 0 100-1.98zm18.879-13.44a1.023 1.023 0 00-1.417 0l-8.911 8.81-4.636-4.58a1 1 0 00-1.417 0 .98.98 0 000 1.4l5.344 5.28a1.01 1.01 0 001.417 0l9.62-9.51a.98.98 0 00-.004-1.4z" transform="translate(-770 -1281)"/></svg><svg viewBox="0 0 55 37" id="delivery" xmlns="http://www.w3.org/2000/svg"><path fill="#a3bbc8" d="M10.602 6.12a.786.786 0 01-.786.786H3.69a.786.786 0 010-1.572h6.126c.434 0 .786.352.786.785zm.523 11.006a.785.785 0 01-.785.786H4.738a.785.785 0 010-1.572h5.602c.434 0 .785.352.785.786zm-2.094-4.717a.786.786 0 01-.785.786h-6.65a.786.786 0 010-1.572h6.65c.433 0 .785.352.785.786zm0 11.006a.786.786 0 01-.785.787H7.6a.786.786 0 010-1.573h.645c.433 0 .785.352.785.786zm-3.262 0a.786.786 0 01-.786.787H1.596a.786.786 0 010-1.573h3.387c.434 0 .786.352.786.786zm44.153-12.56V24.94a.786.786 0 01-.785.787h-2.782a4.983 4.983 0 01-4.912 4.192 4.983 4.983 0 01-4.912-4.192H25.28a4.983 4.983 0 01-4.911 4.192 4.983 4.983 0 01-4.912-4.192h-2.42a.786.786 0 01-.784-.787V1.354c0-.434.351-.786.785-.786h6.046a.786.786 0 010 1.572h-5.26v22.014h1.633a4.983 4.983 0 014.912-4.193 4.983 4.983 0 014.911 4.193h8.336V23.03a.785.785 0 111.57 0v1.125h1.346a4.983 4.983 0 014.912-4.193 4.983 4.983 0 014.912 4.193h1.997v-13.3c0-3.591-2.92-6.513-6.509-6.513h-6.657V19.36a.786.786 0 11-1.571 0V2.14h-11.39a.786.786 0 010-1.572H34.4c.434 0 .786.352.786.786v1.415h6.657c4.455 0 8.08 3.628 8.08 8.086zM23.772 24.94a3.409 3.409 0 00-3.404-3.406 3.409 3.409 0 00-3.404 3.406 3.409 3.409 0 003.404 3.407 3.409 3.409 0 003.403-3.407zm21.075 0a3.409 3.409 0 00-3.404-3.406 3.408 3.408 0 00-3.403 3.406v.001a3.41 3.41 0 003.403 3.406 3.409 3.409 0 003.404-3.407zm1.934-14.085v3.235a.786.786 0 01-.786.787h-8.453a.786.786 0 01-.785-.787V6.7c0-.434.351-.786.785-.786h4.301a4.945 4.945 0 014.938 4.941zm-1.571 0a3.372 3.372 0 00-3.367-3.368h-3.515v5.817h6.882zM22.392 24.94a2.028 2.028 0 01-2.024 2.027 2.028 2.028 0 01-2.025-2.027c0-1.117.908-2.027 2.025-2.027 1.116 0 2.024.91 2.024 2.027zm-1.57 0a.455.455 0 10-.91 0 .455.455 0 00.91 0zm22.646 0a2.028 2.028 0 01-2.025 2.027 2.028 2.028 0 01-2.025-2.027 2.03 2.03 0 012.025-2.027c1.117 0 2.025.91 2.025 2.027zm-1.57 0a.455.455 0 10-.91 0 .455.455 0 00.91 0zm4.883-7.128v1.992a.786.786 0 11-1.571 0v-1.992a.786.786 0 111.57 0z"/><path fill="#a3bbc8" d="M44.75 17.406c5.42 0 9.812 4.386 9.812 9.797 0 5.41-4.393 9.797-9.812 9.797-5.42 0-9.813-4.386-9.813-9.797 0-5.41 4.394-9.797 9.813-9.797z" opacity=".34"/></svg><svg viewBox="0 0 512 512" id="filter" xmlns="http://www.w3.org/2000/svg"><path d="M90.5 0h-30v362h-30v90h30v60h30v-60h30v-90h-30zm0 422h-30v-30h30zM481.5 362h-30V0h-30v362h-30v90h30v60h30v-60h30zm-30 60h-30v-30h30zM331.5 0h-30v222h-30v90h30v200h30V312h30v-90h-30zm0 282h-30v-30h30zM210.5 0h-30v53.652h-30v90h30V512h30V143.652h30v-90h-30zm0 113.652h-30v-30h30z"/></svg><svg viewBox="0 0 22.66 14.38" id="googleplus" xmlns="http://www.w3.org/2000/svg"><defs><style>.ancls-1{fill:#888;fill-rule:evenodd}</style></defs><path id="anUnion_6" data-name="Union 6" class="ancls-1" d="M1052.75 1960.35a7.121 7.121 0 01-6.59-5.65 6.6 6.6 0 01-.14-1.93 7.277 7.277 0 015.49-6.56 5.282 5.282 0 011.18-.19c.23-.01.46-.02.69-.02a6.786 6.786 0 013.4.93 9.386 9.386 0 011.27.93c-.72.71-1.41 1.4-2.11 2.09a3.914 3.914 0 00-2.1-1.02 4.259 4.259 0 00-.61-.04 4.307 4.307 0 00-4.14 3.35 3.817 3.817 0 00-.1 1.3 4.3 4.3 0 002.94 3.74 4.35 4.35 0 001.25.19c.1 0 .2-.01.3-.01a4.2 4.2 0 002.09-.67 3.314 3.314 0 001.43-2.17h-3.85c0-.09.02-1.89.02-2.76l.01-.12h6.76a7.773 7.773 0 01-1.28 6.05 6.273 6.273 0 01-3.55 2.32 7.539 7.539 0 01-1.94.25c-.14 0-.28 0-.42-.01zm13.33-4.05h-1.89v-.07l.02-2.43h-2.51v-.08l.02-1.82v-.07h2.5l.02-2.43v-.07h1.96v.07l-.02 2.43h2.51v.07l-.01 1.82v.08h-2.51l-.02 2.43v.07h-.07z" transform="translate(-1046.03 -1946)"/></svg><svg viewBox="0 0 360.49 360.49" id="grid" xmlns="http://www.w3.org/2000/svg"><path d="M96.653 0H13.061C7.29 0 2.612 4.678 2.612 10.449v83.592c0 5.771 4.678 10.449 10.449 10.449h83.592c5.771 0 10.449-4.678 10.449-10.449V10.449C107.102 4.678 102.424 0 96.653 0zM222.041 0h-83.592C132.678 0 128 4.678 128 10.449v83.592c0 5.771 4.678 10.449 10.449 10.449h83.592c5.771 0 10.449-4.678 10.449-10.449V10.449C232.49 4.678 227.812 0 222.041 0zM96.653 125.388H13.061c-5.771 0-10.449 4.678-10.449 10.449v83.592c0 5.771 4.678 10.449 10.449 10.449h83.592c5.771 0 10.449-4.678 10.449-10.449v-83.592c0-5.771-4.678-10.449-10.449-10.449zM222.041 125.388h-83.592c-5.771 0-10.449 4.678-10.449 10.449v83.592c0 5.771 4.678 10.449 10.449 10.449h83.592c5.771 0 10.449-4.678 10.449-10.449v-83.592c0-5.771-4.678-10.449-10.449-10.449zM347.429 0h-83.592c-5.771 0-10.449 4.678-10.449 10.449v83.592c0 5.771 4.678 10.449 10.449 10.449h83.592c5.771 0 10.449-4.678 10.449-10.449V10.449C357.878 4.678 353.199 0 347.429 0zM347.429 125.388h-83.592c-5.771 0-10.449 4.678-10.449 10.449v83.592c0 5.771 4.678 10.449 10.449 10.449h83.592c5.771 0 10.449-4.678 10.449-10.449v-83.592c0-5.771-4.679-10.449-10.449-10.449zM96.653 256H13.061c-5.771 0-10.449 4.678-10.449 10.449v83.592c0 5.771 4.678 10.449 10.449 10.449h83.592c5.771 0 10.449-4.678 10.449-10.449v-83.592c0-5.771-4.678-10.449-10.449-10.449zM222.041 256h-83.592c-5.771 0-10.449 4.678-10.449 10.449v83.592c0 5.771 4.678 10.449 10.449 10.449h83.592c5.771 0 10.449-4.678 10.449-10.449v-83.592c0-5.771-4.678-10.449-10.449-10.449zM347.429 256h-83.592c-5.771 0-10.449 4.678-10.449 10.449v83.592c0 5.771 4.678 10.449 10.449 10.449h83.592c5.771 0 10.449-4.678 10.449-10.449v-83.592c0-5.771-4.679-10.449-10.449-10.449z"/></svg><svg viewBox="0 0 19 17" id="icon-cart"><path d="M5.526 16.978c-.536 0-1.063-.21-1.461-.607a2.066 2.066 0 01-.453-2.26 2.068 2.068 0 011.915-1.28h.006c.55 0 1.07.214 1.46.602.393.394.609.913.609 1.467.002.84-.5 1.593-1.277 1.917-.258.108-.53.16-.798.16zm.007-2.963h-.004a.887.887 0 00-.628 1.518.89.89 0 10.632-1.518zm8.385 2.963c-.537 0-1.064-.21-1.461-.607a2.065 2.065 0 01-.452-2.26 2.065 2.065 0 011.913-1.28c.546-.04 1.08.218 1.468.603.392.393.607.912.607 1.466a2.064 2.064 0 01-1.274 1.917c-.26.108-.532.16-.8.16zm.006-2.963h-.001c-.331.032-.685.215-.823.548a.89.89 0 10.824-.548zm-11.279.163a.592.592 0 01-.536-.843c.579-1.24 1.627-1.973 3.054-2.15L4.108 5.792a.593.593 0 011.163-.227l1.091 5.578h9.423l1.807-6.771H4.29A4.354 4.354 0 01.007.68.591.591 0 111.178.505a3.165 3.165 0 003.115 2.682h14.07a.591.591 0 01.573.745l-2.123 7.956a.594.594 0 01-.573.44H5.885a.044.044 0 00-.023 0c-1.33 0-2.205.493-2.68 1.51a.593.593 0 01-.537.34z"/></svg><svg viewBox="0 0 18 17" id="icon-heart"><path d="M8.913 16.244a.707.707 0 01-.28-.056c-.353-.15-8.65-3.75-8.65-10.76C.074 2.779 2.19.722 4.801.722c1.743 0 3.266.918 4.112 2.31a4.796 4.796 0 014.112-2.31c2.61 0 4.725 2.058 4.817 4.684 0 7.034-8.297 10.634-8.65 10.783a.71.71 0 01-.28.056zM4.8 2.106c-1.847 0-3.343 1.47-3.408 3.346 0 5.408 6.125 8.663 7.52 9.335 1.395-.672 7.52-3.93 7.52-9.358-.065-1.853-1.563-3.323-3.408-3.323s-3.342 1.47-3.408 3.346a.7.7 0 01-.704.67.7.7 0 01-.705-.67C8.143 3.576 6.646 2.106 4.8 2.106z"/></svg><svg viewBox="0 0 20 21" id="icon-nav"><path d="M2.146 4.88A2.144 2.144 0 010 2.736C0 1.548.96.589 2.146.589c1.187 0 2.146.959 2.146 2.146 0 1.186-.96 2.146-2.146 2.146zm0 7.87A2.145 2.145 0 010 10.603c0-1.186.96-2.145 2.146-2.145a2.145 2.145 0 110 4.292zm0 7.868A2.144 2.144 0 010 18.472c0-1.187.96-2.146 2.146-2.146 1.187 0 2.146.96 2.146 2.146 0 1.187-.96 2.146-2.146 2.146zM10.014 4.88a2.144 2.144 0 01-2.146-2.146c0-1.187.96-2.146 2.146-2.146 1.187 0 2.146.959 2.146 2.146a2.144 2.144 0 01-2.146 2.146zm0 7.869a2.145 2.145 0 01-2.146-2.147c0-1.186.96-2.145 2.146-2.145 1.187 0 2.146.959 2.146 2.145a2.145 2.145 0 01-2.146 2.147zm0 7.868a2.144 2.144 0 01-2.146-2.146c0-1.187.96-2.146 2.146-2.146 1.187 0 2.146.96 2.146 2.146a2.144 2.144 0 01-2.146 2.146zM17.883 4.88a2.144 2.144 0 01-2.146-2.146c0-1.187.96-2.146 2.146-2.146 1.187 0 2.146.959 2.146 2.146 0 1.186-.96 2.146-2.146 2.146zm0 7.869a2.145 2.145 0 01-2.146-2.147c0-1.186.96-2.145 2.146-2.145a2.145 2.145 0 110 4.292zm0 7.868a2.144 2.144 0 01-2.146-2.146c0-1.187.96-2.146 2.146-2.146 1.187 0 2.146.96 2.146 2.146 0 1.187-.96 2.146-2.146 2.146z"/></svg><svg viewBox="0 0 16 16" id="icon-search"><path d="M3.702 6.076c.356-.065.68.13.746.484a2.65 2.65 0 00.78 1.49c.42.388.941.677 1.493.776.325.066.552.39.487.743a.643.643 0 01-.714.516 4.2 4.2 0 01-2.143-1.13 4.164 4.164 0 01-1.136-2.137c-.065-.354.128-.676.487-.742zM6.98-.004c3.465 0 6.279 2.8 6.279 6.257 0 .93-.203 1.812-.568 2.604l2.336 2.036c1.703 1.747.746 3.266.294 3.717-.422.454-1.994 1.415-3.73-.292l-2.06-2.35c-.78.345-1.64.539-2.548.539-3.468 0-6.278-2.802-6.278-6.257 0-3.456 2.807-6.254 6.275-6.254zm5.546 13.517c.293.324 1.126.867 1.88.226.21-.176.634-1.068-.227-1.873l-2.162-1.88a6.269 6.269 0 01-1.363 1.34zM6.98 11.201c2.742 0 4.966-2.216 4.966-4.948S9.722 1.305 6.98 1.305 2.015 3.521 2.015 6.253s2.22 4.948 4.965 4.948z"/></svg><svg viewBox="0 0 17.19 17.19" id="inst" xmlns="http://www.w3.org/2000/svg"><defs><style>.atcls-1{fill:#888;fill-rule:evenodd}</style></defs><path id="atUnion_5" data-name="Union 5" class="atcls-1" d="M1004.59 1961.94a4.322 4.322 0 01-3.43-3.75c-.23-1.45-.25-8.19.17-9.65a4.387 4.387 0 013.75-3.35 34.173 34.173 0 014.31-.19c1.6 0 3.22.04 4.19.1a4.724 4.724 0 013.14 1.28 4.517 4.517 0 011.38 2.94c.12 1.35.21 7.74-.19 9.24a4.411 4.411 0 01-3.8 3.44 42.333 42.333 0 01-4.74.19 29.143 29.143 0 01-4.78-.25zm.92-15.26a2.958 2.958 0 00-2.75 2.59 57.587 57.587 0 00-.06 8.69 2.8 2.8 0 002.12 2.43 27.569 27.569 0 004.63.25c1.8 0 3.57-.06 4.24-.13a2.941 2.941 0 002.75-2.6 61.315 61.315 0 00.11-8.45 2.9 2.9 0 00-2.58-2.74 40.212 40.212 0 00-4.3-.16c-1.71 0-3.41.04-4.16.12zm-.32 6.92a4.445 4.445 0 014.45-4.41 4.37 4.37 0 014.37 4.41 4.458 4.458 0 01-4.45 4.41 4.37 4.37 0 01-4.37-4.41zm1.55-.03a2.834 2.834 0 002.81 2.88h.02a2.882 2.882 0 002.88-2.82 2.82 2.82 0 00-2.8-2.88h-.03a2.881 2.881 0 00-2.88 2.82zm6.45-4.55a1.029 1.029 0 011.03-1.03h.01a1.016 1.016 0 011.02 1.04 1.035 1.035 0 01-1.04 1.02 1.014 1.014 0 01-1.02-1.03z" transform="translate(-1001 -1945)"/></svg><svg viewBox="0 0 24 24" id="listt" xmlns="http://www.w3.org/2000/svg"><path d="M5 0H1a1 1 0 00-1 1v4a1 1 0 001 1h4a1 1 0 001-1V1a1 1 0 00-1-1zM23 0H9a1 1 0 00-1 1v4a1 1 0 001 1h14a1 1 0 001-1V1a1 1 0 00-1-1zM5 9H1a1 1 0 00-1 1v4a1 1 0 001 1h4a1 1 0 001-1v-4a1 1 0 00-1-1zM23 9H9a1 1 0 00-1 1v4a1 1 0 001 1h14a1 1 0 001-1v-4a1 1 0 00-1-1zM5 18H1a1 1 0 00-1 1v4a1 1 0 001 1h4a1 1 0 001-1v-4a1 1 0 00-1-1zM23 18H9a1 1 0 00-1 1v4a1 1 0 001 1h14a1 1 0 001-1v-4a1 1 0 00-1-1z"/></svg><svg viewBox="0 0 50 39" id="logo" xmlns="http://www.w3.org/2000/svg"><path fill="#a3bbc8" d="M.09 27.826c.088-.18 6.411-12.931 6.582-13.256.171-.325.375-.387.507-.452L42.373.068s.57-.188.965.051a.96.96 0 01.449.645l6.25 37.079s.095.475-.309.804c-.405.33-.903.213-.908.212L.779 29.061c-.014-.003-.382-.075-.622-.387-.24-.311-.157-.666-.067-.848zm35.942-6.02l-10.339 2.159 20.05 11.145zM2.736 26.924l17.833-3.714-12.522-6.983zM23.31 22.64l12.372-2.583L41.24 2.468 9.71 15.055zM42.487 5.133l-4.903 15.52 9.78 13.397zM22.95 24.537l-17.523 3.65 38.05 7.76z"/></svg><svg viewBox="0 0 41.78 40.406" id="medal" xmlns="http://www.w3.org/2000/svg"><defs><style>.awcls-1{fill:#a3bbc8;fill-rule:evenodd}</style></defs><path class="awcls-1" d="M12.56 31.95a8.516 8.516 0 01.83-3.671L.17 7.833a.919.919 0 01.11-1.139L6.6.276A.9.9 0 017.23.01h27.35a.882.882 0 01.63.266l6.32 6.418a.906.906 0 01.11 1.139L28.42 28.28a8.508 8.508 0 01.83 3.67 8.346 8.346 0 11-16.69 0zm1.79 0a6.556 6.556 0 106.56-6.661 6.617 6.617 0 00-6.56 6.661zm8.55-8.23a8.324 8.324 0 014.47 2.884L39.24 8.242H32.9zm-8.46 2.883a8.354 8.354 0 014.48-2.883L8.91 8.242H2.57zm6.45-3.127h.03l9.85-15.234H11.04zM3.07 6.429h35.67l-4.53-4.606H7.6zm17.25 28.919v-4.9h-.53a.907.907 0 010-1.814h1.42a.9.9 0 01.89.908v5.808a.89.89 0 11-1.78-.007z"/></svg><svg viewBox="0 0 22 25" id="play" xmlns="http://www.w3.org/2000/svg"><defs><style>.axcls-1{fill:#fff;fill-rule:evenodd}</style></defs><path id="axForm_24" data-name="Form 24" class="axcls-1" d="M970.684 3900.74l-16.044 9.8a3.228 3.228 0 01-3.062.14 2.685 2.685 0 01-1.579-2.39v-19.59a2.685 2.685 0 011.579-2.39 3.258 3.258 0 013.062.15l16.044 9.79a2.666 2.666 0 011.316 2.25 2.638 2.638 0 01-1.316 2.24z" transform="translate(-950 -3886)"/></svg><svg viewBox="0 0 5.188 9.531" id="productarrow" xmlns="http://www.w3.org/2000/svg"><defs><style>.aycls-1{fill:#243f4d;fill-rule:evenodd}</style></defs><path class="aycls-1" d="M.472 9.538a.463.463 0 00.331-.14l4.221-4.265.013-.013a.522.522 0 00.095-.144.541.541 0 00.045-.217.528.528 0 00-.044-.211.525.525 0 00-.1-.147.043.043 0 00-.011-.012L.801.124a.461.461 0 00-.68.019.539.539 0 00.018.724l3.857 3.9-3.857 3.9a.539.539 0 00-.018.724.467.467 0 00.351.147z"/></svg><svg id="rate" data-name="Группа 2" viewBox="0 0 73.375 59.38" xmlns="http://www.w3.org/2000/svg"><defs><style>.azcls-1{fill:#a3bbc8}.azcls-2{fill:#243f4d;fill-rule:evenodd}</style></defs><circle class="azcls-1" cx="56.5" cy="42.5" r="16.875"/><path class="azcls-2" d="M530.635 1273h-57.27a3.368 3.368 0 00-3.365 3.36v41.14a3.368 3.368 0 003.365 3.36h21.691l-.877 7h-3.633a1.07 1.07 0 100 2.14h22.908a1.07 1.07 0 100-2.14h-3.634l-.877-7h21.692a3.368 3.368 0 003.365-3.36v-41.14a3.368 3.368 0 00-3.365-3.36zm-34.291 54.86l.877-7h9.558l.877 7h-11.312zm35.508-10.36a1.213 1.213 0 01-1.217 1.21h-57.27a1.212 1.212 0 01-1.217-1.21v-41.14a1.221 1.221 0 011.217-1.22h57.27a1.222 1.222 0 011.217 1.22v41.14zm-11.525-39.93h-44.672a1.072 1.072 0 00-1.073 1.07v35.43a1.072 1.072 0 001.073 1.07h3.437a1.07 1.07 0 100-2.14h-2.363v-33.29h43.6a1.07 1.07 0 10-.002-2.14zm8.017 0h-3.436a1.07 1.07 0 100 2.14h2.363V1313h-43.6a1.07 1.07 0 100 2.14h44.671a1.073 1.073 0 001.074-1.07v-35.43a1.073 1.073 0 00-1.072-1.07zm-6.872 5.72a3.352 3.352 0 00-2.97 4.93l-8.6 9.09a3.322 3.322 0 00-1.408-.31 3.361 3.361 0 00-2.314.92l-7.348-3.88a3.364 3.364 0 10-6.684-.54 3.352 3.352 0 00.328 1.45l-8.406 8.14a3.331 3.331 0 00-1.539-.38 3.36 3.36 0 103.036 1.91l8.406-8.14a3.328 3.328 0 003.852-.55l7.348 3.88a3.54 3.54 0 00-.044.55 3.365 3.365 0 106.334-1.58l8.6-9.09a3.316 3.316 0 001.408.31 3.355 3.355 0 10.001-6.71zm-38.944 24a1.215 1.215 0 111.217-1.22 1.222 1.222 0 01-1.217 1.22zm12.981-12.58a1.21 1.21 0 111.217-1.21 1.213 1.213 0 01-1.217 1.21zm12.982 6.86a1.215 1.215 0 111.217-1.21 1.212 1.212 0 01-1.217 1.21zm12.981-13.71a1.215 1.215 0 111.217-1.22 1.222 1.222 0 01-1.217 1.22zm0 4.57a1.073 1.073 0 00-1.074 1.07v16a1.074 1.074 0 002.148 0v-16a1.073 1.073 0 00-1.074-1.07zm-25.963 6.86a1.066 1.066 0 00-1.074 1.07v9.14a1.074 1.074 0 002.148 0v-9.14a1.066 1.066 0 00-1.074-1.07zm12.982 6.85a1.073 1.073 0 00-1.074 1.07v2.29a1.074 1.074 0 002.147 0v-2.29a1.072 1.072 0 00-1.073-1.07z" transform="translate(-470 -1273)"/></svg><svg viewBox="0 0 24 24" id="rightarrow" xmlns="http://www.w3.org/2000/svg"><defs><path id="baa" d="M2.293.293a1 1 0 111.414 1.414l-2 2A1 1 0 01.293 2.293l2-2z"/><path id="bac" d="M3.414 4h9.587a1 1 0 010 2H3.414l2.293 2.293a1 1 0 01-1.414 1.414l-4-4a1 1 0 010-1.414l4-4a1 1 0 111.414 1.414L3.414 4z"/></defs><g fill="none" fill-rule="evenodd" transform="matrix(-1 0 0 1 19 7)"><g transform="translate(3 1)"><mask id="bab" fill="#fff"><use xlink:href="#baa"/></mask><use fill="#D8D8D8" fill-rule="nonzero" xlink:href="#baa"/><g fill="#FFA0A0" mask="url(#bab)"><path d="M-8-8h24v24H-8z"/></g></g><mask id="bad" fill="#fff"><use xlink:href="#bac"/></mask><use fill="#000" fill-rule="nonzero" xlink:href="#bac"/><g fill="#7600FF" mask="url(#bad)"><path d="M-5-7h24v24H-5z"/></g></g></svg><svg viewBox="0 0 24 24" id="starr" xmlns="http://www.w3.org/2000/svg"><path d="M12 .587l3.668 7.568L24 9.306l-6.064 5.828 1.48 8.279L12 19.446l-7.417 3.967 1.481-8.279L0 9.306l8.332-1.151z"/></svg><svg viewBox="0 0 52 54" id="sup" xmlns="http://www.w3.org/2000/svg"><path fill="#a3bbc8" d="M41.984 33.594c5.41 0 9.797 4.393 9.797 9.812 0 5.42-4.386 9.813-9.797 9.813-5.41 0-9.797-4.394-9.797-9.813 0-5.42 4.387-9.812 9.797-9.812z" opacity=".34"/><path fill="#a3bbc8" d="M50.02 24.65c0 13.54-11.017 24.556-24.557 24.556A24.349 24.349 0 0110.735 44.3a.937.937 0 111.125-1.5 22.487 22.487 0 0013.603 4.53c12.506 0 22.681-10.174 22.681-22.68 0-4.254-1.184-8.399-3.424-11.988a.938.938 0 011.592-.993 24.495 24.495 0 013.707 12.98zm-25.801 9.896c0 .517-.42.938-.938.938h-9.813a.937.937 0 01-.663-1.601l6.344-6.343c2.06-2.06 3.195-4.8 3.195-7.714 0-2.189-1.78-3.97-3.97-3.97a3.973 3.973 0 00-3.968 3.97.937.937 0 11-1.875 0 5.851 5.851 0 015.844-5.844 5.851 5.851 0 015.844 5.844 12.7 12.7 0 01-3.744 9.039l-4.743 4.743h7.55c.517 0 .937.42.937.938zm15.04-6.438c0 .517-.42.938-.938.938h-2.6v5.5a.938.938 0 01-1.876 0v-5.5h-6.938a.937.937 0 01-.805-1.419l7.875-13.188a.938.938 0 011.742.472l.001.008v7.61a.937.937 0 11-1.875 0v-4.21l-5.286 8.851h5.286v-1.516a.938.938 0 011.875 0v1.516h2.601c.518 0 .938.42.938.938zm4.488-19.51a.938.938 0 01-.915.96l-4.06.096h-.023a.937.937 0 01-.022-1.874l1.843-.043a22.76 22.76 0 00-15.107-5.768c-12.506 0-22.68 10.175-22.68 22.681 0 6.14 2.414 11.891 6.798 16.193a.937.937 0 11-1.312 1.338C3.522 37.525.907 31.298.907 24.65.907 11.11 11.923.094 25.463.094c3.485 0 6.853.715 10.01 2.126a24.405 24.405 0 016.345 4.112l-.042-1.749a.938.938 0 011.875-.045z"/></svg><svg viewBox="0 0 36.41 37.719" id="text" xmlns="http://www.w3.org/2000/svg"><defs><style>.bdcls-1{fill:#a3bbc8;fill-rule:evenodd}</style></defs><path class="bdcls-1" d="M1.975 37.71A1.984 1.984 0 010 35.719V8.441a.915.915 0 01.264-.643L7.74.256a.9.9 0 01.638-.267h19.09a1.98 1.98 0 011.97 1.991v2.87a.9.9 0 11-1.8 0V1.98a.172.172 0 00-.17-.17H9.278v5.552a1.98 1.98 0 01-1.97 1.99h-5.5v26.367a.17.17 0 00.168.17h25.5a.173.173 0 00.17-.17v-13.9a.9.9 0 111.8 0v13.9a1.98 1.98 0 01-1.97 1.991h-25.5zM3.083 7.532H7.31a.17.17 0 00.168-.17V3.097zM7.059 31.24a.91.91 0 010-1.82H11l1.39-5.066a.9.9 0 01.23-.4l.02-.015H7.059a.91.91 0 010-1.82h7.381l5.43-5.48H7.059a.911.911 0 010-1.821H21.68l8.43-8.5a3.038 3.038 0 014.32 0l1.06 1.071a3.1 3.1 0 010 4.356L18 29.382a.889.889 0 01-.39.234l-5.7 1.6c-.03.007-.23.029-.23.029H7.059zm5.921-2.218l2.65-.744-1.91-1.933zm1.56-4.424l2.83 2.853L31.8 12.889l-2.83-2.852zm16.84-17L30.25 8.75l2.83 2.853 1.13-1.147a1.264 1.264 0 000-1.782l-1.06-1.071a1.225 1.225 0 00-.88-.369 1.265 1.265 0 00-.89.368z"/></svg><svg id="time" data-name="Группа 4" viewBox="0 0 78.38 64" xmlns="http://www.w3.org/2000/svg"><defs><style>.becls-1{fill:#a3bbc8}.becls-2{fill:#243f4d;fill-rule:evenodd}</style></defs><circle class="becls-1" cx="61.5" cy="46.5" r="16.88"/><path class="becls-2" d="M1135.06 1322.46a4.359 4.359 0 00-2.21-3.23l-11.59-6.45a4.614 4.614 0 00-5.46.74l-4.07 4.03a2.4 2.4 0 01-3.1.24 75.725 75.725 0 01-15.25-15.09 2.362 2.362 0 01.24-3.07l4.07-4.03a4.484 4.484 0 00.75-5.4l-6.52-11.46a4.37 4.37 0 00-3.26-2.19 4.685 4.685 0 00-3.96 1.34l-4.29 4.24c-3.04 3.01-3.2 8.38-.45 15.13 2.62 6.46 7.61 13.53 14.05 19.9s13.59 11.32 20.12 13.91a23.842 23.842 0 008.65 1.93 9.073 9.073 0 006.63-2.37l4.29-4.25a4.6 4.6 0 001.36-3.92zm-2.89 2.4l-.75.75-9.88-5.34a1.09 1.09 0 00-1.47.43 1.066 1.066 0 00.43 1.46l9.32 5.03-1.94 1.92c-2.35 2.32-7.06 2.31-12.94-.03-6.27-2.49-13.15-7.26-19.39-13.44s-11.06-12.98-13.58-19.18c-2.36-5.82-2.37-10.49-.03-12.81l1.94-1.92 1.04 1.89a1.109 1.109 0 00.96.56 1.095 1.095 0 00.95-1.59l-1.35-2.44.75-.74a2.573 2.573 0 011.8-.76 1.841 1.841 0 01.33.03 2.221 2.221 0 011.67 1.11l6.52 11.47a2.363 2.363 0 01-.39 2.83l-1.94 1.91-5.08-9.22a1.1 1.1 0 00-1.47-.43 1.078 1.078 0 00-.44 1.46l5.39 9.77-.53.53a4.5 4.5 0 00-.45 5.87 75.017 75.017 0 007.28 8.32 76.9 76.9 0 008.41 7.21 4.624 4.624 0 005.94-.44l.53-.53 2.46 1.33a1.112 1.112 0 00.52.13 1.089 1.089 0 00.96-.56 1.064 1.064 0 00-.44-1.45l-1.9-1.03 1.93-1.92a2.438 2.438 0 012.86-.39l11.59 6.45a2.244 2.244 0 011.13 1.65 2.517 2.517 0 01-.74 2.11zm-2.14-28.37h-1.23v-9.24a1.085 1.085 0 00-2.17 0v9.24h-5.67l2.02-9a1.069 1.069 0 00-.82-1.28 1.083 1.083 0 00-1.3.81l-2.31 10.31a1.073 1.073 0 00.21.9 1.091 1.091 0 00.85.41h7.01v3.5a1.09 1.09 0 002.18 0v-3.5h1.22a1.075 1.075 0 10.01-2.15zm-13.89 4.58h-7.99c.47-1.23 1.81-2.01 3.73-3.05 2.38-1.29 5.34-2.88 5.34-6.51a5.729 5.729 0 00-11.43 0 1.085 1.085 0 002.17 0 3.566 3.566 0 017.09 0c0 2.19-1.59 3.21-4.21 4.62-2.36 1.28-5.05 2.73-5.05 6.01a1.084 1.084 0 001.09 1.08h9.26a1.075 1.075 0 100-2.15zm22.93 12.62l-2.11.42a26.086 26.086 0 008.04-18.84 26.608 26.608 0 00-48.27-15.11 1.065 1.065 0 00.26 1.5 1.1 1.1 0 001.51-.26 24.436 24.436 0 0144.33 13.87 23.961 23.961 0 01-7.59 17.5l.48-2.4a1.069 1.069 0 00-.85-1.26 1.085 1.085 0 00-1.28.84l-1.16 5.73a1.069 1.069 0 00.3.97 1.107 1.107 0 00.77.31.749.749 0 00.21-.02l5.79-1.14a1.077 1.077 0 10-.43-2.11zm-20.62-40.11a1.073 1.073 0 00-1.08 1.07v2.3a1.085 1.085 0 002.17 0v-2.3a1.082 1.082 0 00-1.09-1.07zm20.83 20.62h-2.31a1.075 1.075 0 100 2.15h2.31a1.075 1.075 0 100-2.15zm-36.33-9.02l-2-1.15a1.091 1.091 0 00-1.48.4 1.064 1.064 0 00.39 1.46l2.01 1.15a1.063 1.063 0 00.54.14 1.081 1.081 0 00.94-.53 1.07 1.07 0 00-.4-1.47zm34.09 19.47l-2.01-1.14a1.075 1.075 0 10-1.08 1.86l2 1.14a1.063 1.063 0 00.54.14 1.081 1.081 0 00.94-.53 1.067 1.067 0 00-.39-1.47zm-7.63-28.16a1.088 1.088 0 00-1.48.39l-1.16 1.98a1.074 1.074 0 00.94 1.61 1.093 1.093 0 00.94-.53l1.16-1.99a1.059 1.059 0 00-.4-1.46zm-19.68 33.72a1.091 1.091 0 00-1.48.4l-1.16 1.98a1.073 1.073 0 00.4 1.47 1.174 1.174 0 00.54.14 1.07 1.07 0 00.94-.54l1.16-1.98a1.073 1.073 0 00-.4-1.47zm27.7-25.78a1.091 1.091 0 00-1.48-.4l-2 1.15a1.07 1.07 0 00-.4 1.47 1.093 1.093 0 00.94.53 1.063 1.063 0 00.54-.14l2.01-1.15a1.056 1.056 0 00.39-1.46zm-34.08 19.47a1.079 1.079 0 00-1.48-.39l-2.01 1.14a1.072 1.072 0 00.55 2 1.063 1.063 0 00.54-.14l2-1.14a1.073 1.073 0 00.4-1.47zm6.78-25.04l-1.16-1.98a1.088 1.088 0 00-1.48-.39 1.059 1.059 0 00-.4 1.46l1.16 1.99a1.1 1.1 0 00.94.54 1.048 1.048 0 00.54-.15 1.07 1.07 0 00.4-1.47zm19.68 33.73l-1.16-1.98a1.091 1.091 0 00-1.48-.4 1.073 1.073 0 00-.4 1.47l1.16 1.98a1.07 1.07 0 00.94.54 1.174 1.174 0 00.54-.14 1.073 1.073 0 00.4-1.47z" transform="translate(-1078 -1269)"/></svg><svg viewBox="0 0 24 28" id="user" xmlns="http://www.w3.org/2000/svg"><path d="M18.766 12.25c2.203.641 5.234 2.812 5.234 9.922C24 25.391 21.609 28 18.672 28H5.328C2.39 28 0 25.391 0 22.172c0-7.109 3.031-9.281 5.234-9.922A7.914 7.914 0 014 8c0-4.406 3.594-8 8-8s8 3.594 8 8a7.911 7.911 0 01-1.234 4.25zM12 2C8.687 2 6 4.688 6 8s2.688 6 6 6 6-2.688 6-6-2.688-6-6-6zm6.672 24C20.5 26 22 24.297 22 22.172c0-4.922-1.656-8-4.75-8.156C15.844 15.25 14.016 16 12 16s-3.844-.75-5.25-1.984C3.656 14.172 2 17.25 2 22.172 2 24.297 3.5 26 5.328 26h13.344z"/></svg><svg viewBox="0 0 6.1 10.97" id="vieallarrow" xmlns="http://www.w3.org/2000/svg"><defs><style>.bgcls-1{fill:#262626;fill-rule:evenodd}</style></defs><path class="bgcls-1" d="M.55 10.97a.53.53 0 01-.41-.19.6.6 0 01-.15-.4.631.631 0 01.17-.43l4.55-4.47L.16 1A.607.607 0 01-.01.58.629.629 0 01.14.17a.559.559 0 01.8-.02l4.98 4.9.01.01a.657.657 0 01.12.17.7.7 0 01.05.25.742.742 0 01-.05.25.61.61 0 01-.12.16c0 .01-.01.01-.01.02l-4.98 4.9a.589.589 0 01-.39.16z"/></svg><svg viewBox="0 0 43.12 39.094" id="voice" xmlns="http://www.w3.org/2000/svg"><defs><style>.bhcls-1{fill:#a3bbc8;fill-rule:evenodd}</style></defs><path class="bhcls-1" d="M37.87 9.304V2.178A2.174 2.174 0 0036.82.291 2.076 2.076 0 0034.69.27a48.669 48.669 0 01-20.7 6.383l-6.68.034a3.286 3.286 0 00-3.23 2.949H2.72A2.749 2.749 0 00.01 12.41v6.1a2.748 2.748 0 002.71 2.774h1.36a3.32 3.32 0 001.91 2.664l4.85 13.723a2.118 2.118 0 001.98 1.428h4.86a2.1 2.1 0 001.73-.925 2.221 2.221 0 00.25-1.986l-4.15-11.785a48.668 48.668 0 0119.18 6.244 2.08 2.08 0 002.13-.021 2.174 2.174 0 001.05-1.887v-7.126a6.228 6.228 0 000-12.309zM4.05 19.14H2.72a.622.622 0 01-.62-.634v-6.1a.623.623 0 01.62-.634h1.33v7.364zm2.78 2.844a1.2 1.2 0 01-.69-1.1V10.03a1.185 1.185 0 011.17-1.2h5.67v13.262H7.23a1.027 1.027 0 01-.4-.108zm10.88 14.93a.037.037 0 01-.01.028c-.01.013-.01.013-.02.013h-4.86a.049.049 0 01-.03-.018L8.31 24.229h4.92zm18.08-8.179a.037.037 0 01-.03.041.04.04 0 01-.05 0 50.66 50.66 0 00-20.65-6.57v-13.5a50.692 50.692 0 0020.65-6.571.04.04 0 01.05 0 .037.037 0 01.03.041v26.557zm2.08-9.292v-7.974a4.089 4.089 0 010 7.974z"/></svg></svg>